<svg viewBox="0 0 553.4 98.9" xmlns="http://www.w3.org/2000/svg" xmlns:xlink="http://www.w3.org/1999/xlink" id="Layer_1" overflow="hidden"><defs></defs><path d="M214.1 98.9 49.5 98.9C22.3 98.9 0 76.6 0 49.4 0 22.2 22.3 0 49.5 0L214.2 0C241.4 0 263.6 22.2 263.6 49.4 263.6 76.6 241.3 98.8 214.2 98.8" stroke-width="0" fill="#38B769"/><rect x="288.7" y="40.4" width="4.1" height="33.3" stroke-width="0" fill="#6859A7"/><path d="M316.8 57.9C316.8 53.7 314.7 52.3 311.4 52.3 308.1 52.3 305.7 54.1 304.3 56.1L304.3 73.7 300.6 73.7 300.6 49.6 304.3 49.6 304.3 53.1C306 51.1 309.3 49 312.9 49 316.5 49 320.6 51.6 320.6 56.8L320.6 73.7 316.9 73.7 316.9 57.9Z" stroke-width="0" fill="#6859A7"/><path d="M328.8 68.7 328.8 52.9 324.8 52.9 324.8 49.6 328.8 49.6 328.8 43 332.5 43 332.5 49.6 337.4 49.6 337.4 52.9 332.5 52.9 332.5 67.9C332.5 69.7 333.3 71 335 71 336.7 71 337 70.5 337.5 70L338.6 72.8C337.7 73.7 336.3 74.4 334.1 74.4 330.5 74.4 328.8 72.4 328.8 68.7" stroke-width="0" fill="#6859A7"/><path d="M353.3 49C360.6 49 364.9 54.7 364.9 61.9L364.9 62.9 345.4 62.9C345.7 67.4 348.9 71.2 354.1 71.2 359.3 71.2 359.6 70.1 361.5 68.2L363.3 70.6C360.9 73 357.7 74.3 353.7 74.3 346.6 74.3 341.4 69.2 341.4 61.6 341.4 54 346.4 49 353.3 49M345.3 60.1 361.1 60.1C361.1 56.5 358.7 52 353.2 52 347.7 52 345.5 56.3 345.3 60.1" stroke-width="0" fill="#6859A7"/><path d="M370.9 49.6 374.6 49.6 374.6 53.5C376.6 51 379.3 49.1 382.6 49.1L382.6 52.9C382.2 52.8 381.7 52.8 381.1 52.8 378.8 52.8 375.7 54.7 374.6 56.6L374.6 73.7 370.9 73.7 370.9 49.6Z" stroke-width="0" fill="#6859A7"/><path d="M403.7 57.9C403.7 53.7 401.6 52.3 398.3 52.3 395 52.3 392.6 54.1 391.1 56.1L391.1 73.7 387.4 73.7 387.4 49.6 391.1 49.6 391.1 53.1C392.8 51.1 396.1 49 399.7 49 403.3 49 407.4 51.6 407.4 56.8L407.4 73.7 403.7 73.7 403.7 57.9Z" stroke-width="0" fill="#6859A7"/><path d="M430 71C428 73.2 425.2 74.3 422 74.3 418.8 74.3 413.6 71.6 413.6 66.3 413.6 61 417.9 58.3 422 58.3 426.1 58.3 428.1 59.4 430 61.6L430 57.3C430 54.1 427.4 52.2 423.9 52.2 420.4 52.2 418.7 53.2 416.5 55.5L414.8 52.9C417.4 50.2 420.5 48.9 424.4 48.9 428.3 48.9 433.7 51.2 433.7 57.1L433.7 73.7 430 73.7 430 71ZM430 64.1C428.5 62.1 426 61.1 423.4 61.1 420.8 61.1 417.5 63.3 417.5 66.4 417.5 69.5 420 71.6 423.4 71.6 426.8 71.6 428.6 70.6 430 68.6L430 64Z" stroke-width="0" fill="#6859A7"/><path d="M442 68.7 442 52.9 438 52.9 438 49.6 442 49.6 442 43 445.7 43 445.7 49.6 450.6 49.6 450.6 52.9 445.7 52.9 445.7 67.9C445.7 69.7 446.5 71 448.2 71 449.9 71 450.2 70.5 450.7 70L451.8 72.8C450.9 73.7 449.5 74.4 447.3 74.4 443.8 74.4 442 72.4 442 68.7" stroke-width="0" fill="#6859A7"/><path d="M455.3 43C455.3 41.6 456.5 40.5 457.8 40.5 459.1 40.5 460.4 41.6 460.4 43 460.4 44.4 459.2 45.5 457.8 45.5 456.4 45.5 455.3 44.3 455.3 43M455.9 49.6 459.6 49.6 459.6 73.7 455.9 73.7 455.9 49.6Z" stroke-width="0" fill="#6859A7"/><path d="M465.8 61.6C465.8 54.6 470.4 49 477.7 49 485 49 489.6 54.6 489.6 61.6 489.6 68.6 485 74.3 477.7 74.3 470.4 74.3 465.8 68.6 465.8 61.6M485.7 61.6C485.7 56.7 482.9 52.3 477.7 52.3 472.5 52.3 469.7 56.7 469.7 61.6 469.7 66.5 472.6 70.9 477.7 70.9 482.8 70.9 485.7 66.5 485.7 61.6" stroke-width="0" fill="#6859A7"/><path d="M512.1 57.9C512.1 53.7 510 52.3 506.7 52.3 503.4 52.3 501 54.1 499.6 56.1L499.6 73.7 495.9 73.7 495.9 49.6 499.6 49.6 499.6 53.1C501.3 51.1 504.6 49 508.2 49 511.8 49 515.9 51.6 515.9 56.8L515.9 73.7 512.2 73.7 512.2 57.9Z" stroke-width="0" fill="#6859A7"/><path d="M538.4 71C536.4 73.2 533.7 74.3 530.4 74.3 527.1 74.3 522 71.6 522 66.3 522 61 526.3 58.3 530.4 58.3 534.5 58.3 536.4 59.4 538.4 61.6L538.4 57.3C538.4 54.1 535.8 52.2 532.3 52.2 528.8 52.2 527 53.2 524.9 55.5L523.2 52.9C525.8 50.2 528.9 48.9 532.8 48.9 536.7 48.9 542.1 51.2 542.1 57.1L542.1 73.7 538.3 73.7 538.3 71ZM538.4 64.1C537 62.1 534.4 61.1 531.8 61.1 529.2 61.1 525.8 63.3 525.8 66.4 525.8 69.5 528.3 71.6 531.8 71.6 535.3 71.6 537 70.6 538.4 68.6L538.4 64Z" stroke-width="0" fill="#6859A7"/><rect x="549.7" y="40.4" width="3.7" height="33.3" stroke-width="0" fill="#6859A7"/><path d="M255.5 4C255.5 1.7 257.3 0 259.5 0 261.7 0 263.5 1.8 263.5 4 263.5 6.2 261.7 8 259.5 8 257.3 8 255.5 6.2 255.5 4M256.1 4C256.1 5.9 257.6 7.4 259.5 7.4 261.4 7.4 262.9 5.9 262.9 4 262.9 2.1 261.4 0.6 259.5 0.6 257.6 0.6 256.1 2.1 256.1 4M259.5 4.5 258.7 4.5 258.7 6.3 258.1 6.3 258.1 1.7 260 1.7C260.8 1.7 261.5 2.3 261.5 3.1 261.5 3.9 260.6 4.5 260.3 4.5L261.5 6.3 260.7 6.3 259.5 4.5ZM258.7 2.3 258.7 3.9 259.9 3.9C260.3 3.9 260.7 3.6 260.7 3.1 260.7 2.6 260.3 2.3 259.9 2.3L258.7 2.3Z" stroke-width="0" fill="#38B769"/><path d="M52.2 24.4C60.9 24.4 71.2 27.7 71.2 34L71.2 40.2C71.2 40.5 71 40.7 70.7 40.7L63.6 40.7C63.3 40.7 63.1 40.5 63.1 40.2L63.1 37.1C63.1 33.8 57.8 32 52.6 32 42.3 32 35.9 38.6 35.9 48.9 35.9 59.2 42.3 66.9 53.1 66.9 63.9 66.9 64.2 65.9 64.2 61.8L64.2 57.1C64.2 56.8 64 56.6 63.7 56.6L55.9 56.6C55.6 56.6 55.4 56.4 55.4 56.1L55.4 50.4C55.4 50.1 55.6 49.9 55.9 49.9L71.8 49.9C72.1 49.9 72.3 50.1 72.3 50.4L72.3 64.5C72.3 71.9 59.3 74.5 52.1 74.5 37.2 74.5 26.5 63.7 26.5 49.2 26.5 34.7 37 24.3 52.1 24.3" stroke-width="0" fill="#FFFFFF"/><path d="M78.5 67 83.3 67C83.6 67 83.8 66.8 83.8 66.5L86.6 32.4C86.6 32.1 86.4 31.9 86.1 31.9L81.3 31.9C81 31.9 80.8 31.7 80.8 31.4L80.8 25.6C80.8 25.3 81 25.1 81.3 25.1L96.2 25.1C96.4 25.1 96.6 25.2 96.7 25.4L107.4 52.5C107.9 53.7 108.1 54.7 108.3 55.4L108.6 56.5 108.7 56.5 109 55.4C109.2 54.6 109.5 53.6 110 52.5L120.6 25.4C120.6 25.2 120.9 25.1 121.1 25.1L136 25.1C136.3 25.1 136.5 25.3 136.5 25.6L136.5 31.4C136.5 31.7 136.3 31.9 136 31.9L131.2 31.9C130.9 31.9 130.7 32.1 130.7 32.4L133.4 66.5C133.4 66.8 133.6 67 133.9 67L138.7 67C139 67 139.2 67.2 139.2 67.5L139.2 73.2C139.2 73.5 139 73.7 138.7 73.7L119.8 73.7C119.5 73.7 119.3 73.5 119.3 73.2L119.3 67.5C119.3 67.2 119.5 67 119.8 67L124.2 67C124.5 67 124.7 66.8 124.7 66.5L123 42.6C123 41.7 123 40.6 123 39.7L123 38.1C123.1 38.1 123 38.1 123 38.1 123 38.6 122.8 39.1 122.7 39.6 122.5 40.5 122.2 41.6 121.9 42.4L112.7 64.4C112.7 64.6 112.4 64.7 112.2 64.7L105.2 64.7C105 64.7 104.8 64.6 104.7 64.4L95.5 42.4C95.2 41.6 94.9 40.5 94.7 39.6 94.6 39.1 94.4 38.6 94.4 38.1L94.1 38.1 94.1 39.7C94.3 40.7 94.3 42.3 94.3 43.2L92.6 66.5C92.6 66.8 92.8 67 93.1 67L97.5 67C97.8 67 98 67.2 98 67.5L98 73.2C98 73.5 97.8 73.7 97.5 73.7L78.5 73.7C78.2 73.7 78 73.5 78 73.2L78 67.5C78 67.2 78.2 67 78.5 67" stroke-width="0" fill="#FFFFFF"/><path d="M145.4 67 150.2 67C150.5 67 150.7 66.8 150.7 66.5L150.7 32.4C150.7 32.1 150.5 31.9 150.2 31.9L145.4 31.9C145.1 31.9 144.9 31.7 144.9 31.4L144.9 25.6C144.9 25.3 145.1 25.1 145.4 25.1L168.1 25.1C171 25.1 173.9 25.3 176.3 26.3 181.6 28.5 185 33.8 185 40.7 185 47.6 181.4 53.5 175.8 55.5 173.5 56.3 171.1 56.5 168.3 56.5L160.1 56.5C159.8 56.5 159.6 56.7 159.6 57L159.6 66.5C159.6 66.8 159.8 67 160.1 67L165 67C165.3 67 165.5 67.2 165.5 67.5L165.5 73.2C165.5 73.5 165.3 73.7 165 73.7L145.4 73.7C145.1 73.7 144.9 73.5 144.9 73.2L144.9 67.5C144.9 67.2 145.1 67 145.4 67M167.2 49.3C169.2 49.3 170.8 49 172.1 48.3 174.8 47 176.1 44.3 176.1 40.7 176.1 37.1 174.8 34.8 172.5 33.5 171.2 32.7 169.5 32.3 167.2 32.3L160.1 32.3C159.8 32.3 159.6 32.5 159.6 32.8L159.6 48.7C159.6 49 159.8 49.2 160.1 49.2L167.1 49.2Z" stroke-width="0" fill="#FFFFFF"/><path d="" stroke-width="0" fill="#FFFFFF"/><path d="M199 45.3 210.8 45.3C211.1 45.3 211.3 45.1 211.3 44.8L211.3 25.7C211.3 25.4 211.5 25.2 211.8 25.2L215.8 25.2C218.1 25.2 220 27.1 220 29.4L220 44.8C220 45.1 220.2 45.3 220.5 45.3L237.8 45.3C238.1 45.3 238.3 45.5 238.3 45.8L238.3 49.5C238.3 51.8 236.4 53.7 234.1 53.7L220.5 53.7C220.2 53.7 220 53.9 220 54.2L220 73.2C220 73.5 219.8 73.7 219.5 73.7L215.5 73.7C213.2 73.7 211.3 71.8 211.3 69.5L211.3 54.2C211.3 53.9 211.1 53.7 210.8 53.7L193.5 53.7C193.2 53.7 193 53.5 193 53.2L193 49.5C193 47.2 194.9 45.3 197.2 45.3L199 45.3Z" stroke-width="0" fill="#FFFFFF"/></svg>